<svg xmlns="http://www.w3.org/2000/svg" width="256px" height="256px" viewBox="113.5 143.5 256 256">
<path fill="#FFFFFF" d="M113.5,143.5h256v256h-256V143.5z"/>
<path fill="#999999" d="M113.5,143.5v256h256v-256H113.5z M129.5,159.5h224v224h-224V159.5z"/>
<path fill="#B9B9B9" d="M177.5,335.5h160v16h-160V335.5z M177.5,303.5h160v16h-160V303.5z M177.5,271.5h160v16h-160V271.5z M177.5,239.5h160v16h-160V239.5z"/>
<path fill="#666666" d="M145.5,175.5h192v32h-192V175.5z"/>
<path fill="#34A853" d="M145.5,239.5h16v16h-16V239.5z M145.5,271.5h16v16h-16V271.5z M145.5,303.5h16v16h-16V303.5z M145.5,335.5 h16v16h-16V335.5z"/>
<g>
	<path fill="#FFFFFF" d="M333.32,383.641c-3.914,0-7.594-1.516-10.344-4.281l-25.188-25.172
		c-11.188,6.531-23.812,9.969-36.781,9.969c-40.336,0-73.148-32.812-73.148-73.156c0-40.328,32.812-73.141,73.148-73.141
		c40.328,0,73.141,32.812,73.141,73.141c0,12.969-3.43,25.625-9.961,36.797l25.188,25.172c2.75,2.75,4.266,6.438,4.266,10.344
		s-1.516,7.594-4.266,10.344l-5.711,5.703C340.906,382.125,337.234,383.641,333.32,383.641z M261.008,247.125
		c-24.203,0-43.891,19.688-43.891,43.875c0,24.203,19.688,43.891,43.891,43.891c24.195,0,43.883-19.688,43.883-43.891
		C304.891,266.812,285.203,247.125,261.008,247.125z"/>
	<path fill="#035DE0" d="M192.734,291c0,37.703,30.562,68.281,68.273,68.281c13.852,0,26.727-4.188,37.492-11.266l27.922,27.906
		c3.789,3.781,10,3.781,13.789,0l5.719-5.719c3.789-3.797,3.789-10,0-13.797L318.008,328.5c7.102-10.781,11.266-23.656,11.266-37.5
		c0-37.688-30.586-68.266-68.266-68.266C223.297,222.734,192.734,253.312,192.734,291z M309.766,291
		c0,26.938-21.859,48.766-48.758,48.766c-26.93,0-48.766-21.828-48.766-48.766c0-26.922,21.836-48.75,48.766-48.75
		C287.906,242.25,309.766,264.078,309.766,291z"/>
</g>
</svg>
