<svg xmlns="http://www.w3.org/2000/svg" width="30px" height="30px" viewBox="0 0 30 30">
<path fill="#FFFFFF" d="M1.875,1.875h26.25v26.25H1.875V1.875z"/>
<path fill="#999999" d="M1.875,1.875v26.25h26.25V1.875H1.875z M3.75,3.75h22.5v22.5H3.75V3.75z"/>
<path fill="#B9B9B9" d="M9.375,22.5h15v1.875h-15V22.5z M9.375,11.25h15v1.875h-15V11.25z M9.375,15h15v1.875h-15V15z M9.375,18.75 h15v1.875h-15V18.75z"/>
<path fill="#666666" d="M5.625,5.625h18.75v3.75H5.625V5.625z"/>
<path fill="#34A853" d="M5.625,11.25H7.5v1.875H5.625V11.25z M5.625,15H7.5v1.875H5.625V15z M5.625,18.75H7.5v1.875H5.625V18.75z M5.625,22.5H7.5v1.875H5.625V22.5z"/>
<path fill="#FFFFFF" d="M24.415,26.498c-0.401,0-0.778-0.155-1.062-0.438l-2.582-2.582C19.625,24.148,18.33,24.5,17,24.5 c-4.136,0-7.5-3.364-7.5-7.5s3.364-7.5,7.5-7.5s7.5,3.364,7.5,7.5c0,1.33-0.352,2.626-1.021,3.771l2.584,2.582 c0.281,0.281,0.438,0.658,0.438,1.061s-0.154,0.777-0.438,1.061l-0.586,0.586C25.193,26.343,24.816,26.498,24.415,26.498z M17,12.5 c-2.481,0-4.5,2.019-4.5,4.5c0,2.48,2.019,4.5,4.5,4.5c2.48,0,4.5-2.02,4.5-4.5C21.5,14.519,19.48,12.5,17,12.5z"/>
<path fill="#035DE0" d="M10,17c0,3.865,3.134,7,7,7c1.421,0,2.741-0.428,3.846-1.154l2.862,2.861c0.39,0.389,1.024,0.389,1.414,0 l0.586-0.586c0.39-0.389,0.39-1.025,0-1.414l-2.862-2.861C23.573,19.74,24,18.42,24,17c0-3.865-3.136-7-7-7 C13.134,10,10,13.135,10,17z M22,17c0,2.762-2.241,5-5,5c-2.761,0-5-2.238-5-5c0-2.761,2.239-5,5-5C19.759,12,22,14.239,22,17z"/>
</svg>
